<?xml version="1.0" encoding="utf-8"?>
<!-- Generator: Adobe Illustrator 16.0.0, SVG Export Plug-In . SVG Version: 6.00 Build 0)  -->
<!DOCTYPE svg PUBLIC "-//W3C//DTD SVG 1.1//EN" "http://www.w3.org/Graphics/SVG/1.1/DTD/svg11.dtd">
<svg version="1.1" id="Layer_1" xmlns="http://www.w3.org/2000/svg" xmlns:xlink="http://www.w3.org/1999/xlink" x="0px" y="0px"
	 width="1148px" height="195px" viewBox="0 0 1148 195" enable-background="new 0 0 1148 195" xml:space="preserve">
<g display="none">
</g>
<g>
	<path fill-rule="evenodd" clip-rule="evenodd" fill="#FFFFFF" d="M163.979,0c3.545,2.939,3.184,6.968,3.137,10.957
		c-0.05,4.162-1.381,9.262,0.531,12.216c1.793,2.772,7.112,3.228,10.844,4.789c28.41,11.891,46.412,33.741,58.445,61.25
		c5.467,12.498,7.848,25.742,9.043,39.229c0.553,6.245-1.227,8.121-7.631,8.136c-21.493,0.05-42.986,0.021-64.48,0.021
		c-1.984,0-3.968,0-6.361,0c0,4.069,0,7.772,0,12.155c1.996,0,3.938,0,5.879,0c25.16,0,50.319-0.006,75.479,0.003
		c9.119,0.004,10.977,3.041,6.983,11.408c-2.579,5.405-5.219,10.782-7.78,16.195c-1.949,4.119-0.248,6.881,4.334,6.292
		c2.237-0.287,4.617-1.794,6.316-3.401c2.705-2.559,5.464-3.549,8.381-1.141c3.186,2.63,2.514,5.847,0.218,8.855
		c-7.044,9.231-21.337,9.596-29.392,0.756c-7.162-7.86-9.645-7.838-17.026,0.153c-8.021,8.682-21.327,8.368-29.067-0.685
		c-6.028-7.051-9.439-7.055-15.529-0.017c-8.145,9.414-21.574,9.397-29.725-0.038c-6.064-7.021-9.478-7.001-15.532,0.092
		c-7.711,9.034-21.075,9.317-29.073,0.616c-6.996-7.611-8.18-7.504-16.28-1.486c-1.667,1.237-5.545,1.098-7.482-0.014
		c-2.722-1.561-2.562-4.808-0.706-7.504c3.875-5.633,9.602-7.882,16.818-8.473c-1.906-4.146-3.647-7.853-5.316-11.59
		c-2.922-6.543-0.811-9.987,6.25-10.006c18.161-0.048,36.322-0.017,54.483-0.018c1.804,0,3.608,0,5.763,0c0-4.151,0-7.855,0-12.155
		c-2.003,0-3.789,0.001-5.576,0c-14.162,0-28.327,0.143-42.484-0.136c-2.494-0.05-6.08-1.219-7.111-3.036
		c-1.016-1.788-0.158-5.505,1.131-7.606c17.139-27.961,34.498-55.785,51.801-83.644c0.702-1.131,1.611-2.193,2.042-3.422
		c1.169-3.334,1.216-5.845-3.377-6.888c-11.838-2.687-23.558-5.888-35.348-8.792c-3.406-0.839-5.964-2.315-5.862-6.249
		c0.096-3.713,2.721-4.998,5.842-5.778c13.231-3.31,26.457-6.645,39.678-9.996c0.942-0.239,1.83-0.695,2.744-1.051
		C160.646,0,162.313,0,163.979,0z M180.514,41.814c16.458,29.365,8.31,56.282-5.282,82.987c19.613,0,39.008,0,58.395,0
		C234.667,96.551,207.34,53.427,180.514,41.814z M103.069,160.292c-0.045,0.563-0.195,0.944-0.078,1.204
		c2.388,5.302,4.781,10.602,7.222,15.879c3.138,6.787,7.973,7.349,12.796,1.517c9.188-11.106,22.409-11.153,31.559-0.113
		c4.423,5.336,9.321,5.365,13.693,0.082c9.175-11.09,22.471-11.115,31.564-0.06c4.379,5.321,9.369,5.452,13.654,0.006
		c5.428-6.898,12.382-9.139,20.8-7.636c1.09,0.194,2.175,0.411,3.343,0.633c1.844-3.935,3.561-7.597,5.396-11.512
		C195.856,160.292,149.459,160.292,103.069,160.292z M155.54,124.84c0-21.326,0-42.176,0-63.025
		c-0.274-0.103-0.549-0.205-0.824-0.308c-12.99,20.916-25.979,41.833-39.332,63.333C129.271,124.84,142.2,124.84,155.54,124.84z
		 M167.38,114.008c12.565-22.549,16.003-52.959,0-69.437C167.38,67.527,167.38,90.191,167.38,114.008z M142.058,16.525
		c-0.004,0.376-0.01,0.752-0.015,1.128c4.423,1.096,8.845,2.192,13.542,3.356c0-2.786,0-5.167,0-7.9
		C150.844,14.307,146.451,15.416,142.058,16.525z"/>
	<path fill-rule="evenodd" clip-rule="evenodd" fill="#FFFFFF" d="M1147.855,71.991c-13.457,0-26.916,0-41.035,0
		c0,34.799,0,69.133,0,103.723c-12.896,0-25.133,0-37.777,0c0-34.352,0-68.582,0-103.377c-13.771,0-27.158,0-40.869,0
		c0-10.285,0-20.009,0-30.342c39.904,0,79.793,0,119.682,0C1147.855,51.993,1147.855,61.992,1147.855,71.991z"/>
	<path fill-rule="evenodd" clip-rule="evenodd" fill="#FFFFFF" d="M0,103.987c11.261-11.535,22.51-23.081,33.786-34.6
		c4.193-4.282,8.402-8.549,12.69-12.734c3.935-3.839,8.716-4.107,11.922-0.827c3.313,3.391,3.136,7.967-0.876,11.956
		C44.661,80.573,31.688,93.251,17.795,106.92c11.183,10.804,21.825,21.079,32.454,31.365c1.315,1.272,2.655,2.537,3.826,3.938
		c2.846,3.405,2.799,7.946-0.006,10.867c-2.961,3.082-7.615,3.109-11.229-0.013c-1.256-1.085-2.378-2.326-3.551-3.508
		C26.192,136.376,13.097,123.181,0,109.986C0,107.986,0,105.986,0,103.987z"/>
	<path fill-rule="evenodd" clip-rule="evenodd" fill="#FFFFFF" d="M394.139,164.3c4.17-9.436,8.177-18.5,11.894-26.908
		c9.576,3.468,18.514,7.909,27.962,9.777c8.95,1.771,18.435,0.988,27.684,0.986c2-0.001,4.184-1.173,5.966-2.305
		c5.576-3.544,6.048-10.57,0.43-13.996c-4.443-2.711-9.66-4.326-14.711-5.838c-10.501-3.142-21.34-5.274-31.639-8.947
		c-14.779-5.271-24.401-15.296-25.126-31.959c-0.739-17.011,6.591-29.602,21.289-37.788c12.595-7.014,26.45-8.681,40.61-8.235
		c14.45,0.455,28.381,3.249,41.509,9.611c2.838,1.374,3.579,2.629,2.221,5.687c-3.562,8.011-6.754,16.186-10.198,24.551
		c-11.51-5.813-22.948-10.321-35.548-10.16c-4.923,0.063-9.94,0.782-14.718,1.986c-4.483,1.13-7.481,4.382-7.756,9.322
		c-0.281,5.04,3.088,7.813,7.189,9.054c9.53,2.886,19.268,5.081,28.843,7.832c5.896,1.694,11.789,3.556,17.436,5.931
		c28.801,12.111,26.134,46.838,8.93,61.594c-10.167,8.721-22.161,12.564-35.174,13.837c-20.461,2.001-40.166-0.958-58.939-9.471
		C399.606,167.643,397.122,165.984,394.139,164.3z"/>
	<path fill-rule="evenodd" clip-rule="evenodd" fill="#FFFFFF" d="M585.004,115.019c-0.436-10.385-6.568-16.19-17.349-16.993
		c-11.707-0.87-22.43,2.059-32.348,9.081c-4.052-8.271-7.983-16.299-12.173-24.852c1.516-0.965,2.907-2.055,4.461-2.81
		c19.918-9.661,40.769-12.123,62.213-6.857c18.584,4.562,30.049,17.279,30.975,36.396c1.068,22.059,0.248,44.208,0.248,66.657
		c-10.584,0-21.49,0-32.889,0c0-3.478,0-7.045,0-11.506c-14.685,16.728-32.159,16.571-50.183,10.081
		c-15.228-5.483-22.317-20.951-18.183-36.608c2.532-9.59,9.03-15.7,18.067-18.383c7.569-2.248,15.578-3.381,23.473-4.062
		C569.071,114.495,576.926,115.019,585.004,115.019z M584.998,133.608c-7.783,0.438-15.397,0.44-22.88,1.433
		c-5.457,0.722-8.078,4.371-8.17,9.122c-0.092,4.692,2.619,8.225,7.568,9.862C575.141,158.534,586.506,149.267,584.998,133.608z"/>
	<path fill-rule="evenodd" clip-rule="evenodd" fill="#FFFFFF" d="M740.602,175.785c-12.006,0-23.605,0-35.529,0
		c0-47.518,0-94.845,0-142.48c11.777,0,23.5,0,35.529,0C740.602,80.694,740.602,128.026,740.602,175.785z"/>
	<path fill-rule="evenodd" clip-rule="evenodd" fill="#FFFFFF" d="M1012.533,175.829c-12.502,0-24.627,0-37.121,0
		c0-44.499,0-88.851,0-133.52c12.309,0,24.545,0,37.121,0C1012.533,86.649,1012.533,131.007,1012.533,175.829z"/>
	<path fill-rule="evenodd" clip-rule="evenodd" fill="#FFFFFF" d="M888.809,177.312c-22.07-0.358-38.744-14.572-39.865-34.266
		c-1.207-21.179,13.994-37.77,36.135-38.865c5.566-0.275,11.389,0.26,16.777,1.647c17.299,4.457,27.471,18.385,27.016,36.027
		c-0.426,16.486-11.924,30.144-28.723,33.87C896.434,176.551,892.592,176.798,888.809,177.312z M903.873,140.608
		c0.084-9.902-5.758-16.521-14.691-16.642c-9.041-0.123-15.146,6.309-15.271,16.085c-0.129,10.1,5.906,16.934,14.965,16.945
		C897.813,157.009,903.787,150.479,903.873,140.608z"/>
	<path fill-rule="evenodd" clip-rule="evenodd" fill="#FFFFFF" d="M680.59,175.804c-11.953,0-23.547,0-35.49,0
		c0-34.503,0-68.835,0-103.49c11.723,0,23.443,0,35.49,0C680.59,106.653,680.59,140.992,680.59,175.804z"/>
	<path fill-rule="evenodd" clip-rule="evenodd" fill="#FFFFFF" d="M786.92,105.987c3.391,0,6.352,0,9.766,0
		c0-6.19,0-12.112,0-18.433c8.494,0,16.543,0,25.148,0c0,5.865,0,11.763,0,18.245c5.752,0,10.973,0,16.51,0c0,6.5,0,12.42,0,18.94
		c-5.16,0-10.377,0-16.004,0c0,9.174-0.338,17.781,0.135,26.343c0.258,4.66,3.607,6.61,8.604,6.096
		c1.959-0.201,3.871-0.839,6.393-1.411c0.979,2.648,2.02,5.374,2.992,8.124c0.994,2.809,1.924,5.64,3.109,9.138
		c-10.984,5.075-21.916,5.457-32.854,0.959c-9.635-3.962-13.258-12.256-13.678-21.993c-0.379-8.78-0.08-17.592-0.08-26.852
		c-3.473,0-6.555,0-10.041,0C786.92,118.656,786.92,112.621,786.92,105.987z"/>
	<path fill-rule="evenodd" clip-rule="evenodd" fill="#FFFFFF" d="M325.985,102.643c-5.847-5.548-10.73-10.038-15.452-14.691
		c-6.761-6.662-13.45-13.396-20.079-20.189c-3.947-4.045-4.185-8.576-0.864-11.949c3.225-3.276,8.02-3.025,11.915,0.869
		c13.07,13.068,26.107,26.171,39.082,39.335c4.16,4.221,4.157,8.391-0.066,12.671c-14.503,14.697-29.066,29.334-43.684,43.917
		c-3.641,3.633-8.404,3.722-11.571,0.574c-3.208-3.188-3.188-7.834,0.449-11.542c11.544-11.769,23.185-23.44,34.851-35.088
		C321.851,105.265,323.537,104.384,325.985,102.643z"/>
	<path fill-rule="evenodd" clip-rule="evenodd" fill="#FFFFFF" d="M662.627,59.954c-13.787-0.017-22.857-9.005-21.77-21.542
		c0.057-0.662,0.096-1.334,0.232-1.982c2.111-10.034,13.057-16.637,24.941-15.06c12.248,1.626,19.336,9.072,18.857,19.812
		c-0.469,10.499-8.771,18.192-20.264,18.768C663.961,59.982,663.293,59.954,662.627,59.954z"/>
</g>
</svg>
